PathFileType	4	(X/Y/Z)	C:/Users/beibeiliu/ov580/test_trc/User2\sequence.30_training_dense_left.trc
DataRate	CameraRate	NumFrames	NumMarkers	Units	OrigDataRate	OrigDataStartFrame	OrigNumFrames
120	120	11	19	mm	120	1	302
Frame#	Time	ThumbCMC			ThumbMCP			ThumbIP			ThumbTip			IndexMCP			IndexPIP			IndexTip			MiddleMCP			MiddlePIP			MiddleTip			RingMCP			RingPIP			RingTip			PinkyMCP			PinkyPIP			PinkyTip			BackHand1			BackHand2			BackHand3	
		X0	Y0	Z0	X1	Y1	Z1	X2	Y2	Z2	X3	Y3	Z3	X4	Y4	Z4	X5	Y5	Z5	X6	Y6	Z6	X7	Y7	Z7	X8	Y8	Z8	X9	Y9	Z9	X10	Y10	Z10	X11	Y11	Z11	X12	Y12	Z12	X13	Y13	Z13	X14	Y14	Z14	X15	Y15	Z15	X16	Y16	Z16	X17	Y17	Z17	X18	Y18	Z18	
0	0	-136.263	-56.8526	118.003	-118.489	-73.2829	96.3036	-99.5864	-86.4257	68.755	-91.9822	-99.4224	44.3649	-152.352	-39.681	36.9175	-144.328	-41.0728	9.88216	-139.232	-44.6188	-22.9361	-177.869	-37.2806	28.478	-178.605	-37.7761	-4.47213	-180.312	-43.4661	-36.5128	-200.254	-44.0642	32.2781	-203.32	-44.4736	7.80661	-204.078	-50.1839	-21.8923	-224.826	-58.5705	49.4678	-229.529	-59.8696	26.9226	-231.441	-56.5204	0.43301	-203.244	-38.9331	86.7599	-205.308	-33.4746	124.163	-169.932	-30.4011	104.092	
1	0.00833333	-138.33	-57.7987	115.859	-117.841	-72.9169	95.428	-105.085	-86.9921	68.7282	-93.2003	-100.815	45.6129	-152.969	-39.399	35.4013	-145.844	-40.4637	5.42053	-141.297	-45.9444	-24.1066	-177.372	-36.65	25.9991	-177.92	-37.3565	-2.24375	-180.403	-44.3359	-36.9529	-205.089	-44.2659	34.1112	-202.636	-45.0704	6.99613	-203.556	-51.1389	-27.3425	-222.26	-59.824	52.6348	-230.922	-59.4151	21.426	-234.431	-56.5392	1.52941	-205.993	-40.6983	90.1821	-205.008	-32.8984	121.155	-169.531	-31.6021	102.347	
2	0.0166667	-138.783	-59.1756	117.91	-119.677	-74.0625	98.5019	-101.256	-89.1558	66.5798	-94.8728	-101.619	50.42	-147.499	-39.8661	32.6401	-146.117	-41.6145	7.65426	-137.738	-45.9153	-19.5973	-180.014	-37.2716	29.3131	-178.268	-38.2793	-3.56628	-177.477	-44.6426	-35.2724	-200.01	-44.8687	35.9715	-202.942	-46.762	2.32912	-204.296	-53.1207	-26.4184	-223.991	-59.35	51.2653	-230.895	-61.0769	23.2677	-232.721	-59.9459	0.230447	-206.809	-40.8142	89.4519	-204.458	-35.3578	120.851	-171.373	-32.8206	105.131	
3	0.025	-135.061	-59.9379	113.05	-119.86	-75.4947	95.1325	-102.083	-89.8525	68.5273	-93.06	-102.823	51.2409	-150.106	-41.3844	32.6176	-141.378	-41.8734	4.41896	-142.974	-47.8378	-19.5238	-177.563	-38.416	30.5539	-178.424	-39.2997	-6.11659	-180.001	-47.0331	-36.5993	-199.48	-45.6041	32.9691	-203.593	-47.8914	3.21569	-201.809	-53.298	-22.0401	-219.171	-61.5075	51.78	-226.431	-60.8896	23.0922	-233.155	-59.1262	0.447378	-204.564	-43.1051	86.2243	-207.996	-36.8504	119.23	-169.557	-33.6531	101.822	
4	0.0333333	-139.787	-63.0267	115.6	-118.415	-77.603	92.5272	-98.944	-91.5804	69.2228	-90.245	-104.545	47.9169	-147.781	-43.1305	35.4274	-143.427	-43.738	8.28171	-138.208	-48.5932	-19.7174	-175.177	-38.6487	24.3391	-175.247	-42.2437	-9.21427	-177.155	-48.8041	-36.1846	-204.043	-49.5669	32.7193	-202.209	-49.7994	0.697679	-203.214	-58.0339	-27.5471	-224.807	-64.3546	48.4927	-225.196	-64.3218	23.0853	-233.354	-61.972	-1.10451	-205.586	-44.2692	85.7528	-202.521	-38.3185	116.915	-170.37	-37.335	100.777	
5	0.0416667	-139.544	-65.4673	110.181	-120.001	-79.4096	91.9109	-101.638	-92.886	63.9529	-90.0725	-106.156	45.3555	-147.309	-46.2441	35.3335	-145.772	-47.4564	2.67261	-138.783	-51.4494	-21.0446	-179.136	-43.5852	23.3024	-175.972	-44.8239	-8.13012	-179.618	-53.5217	-38.8856	-204.763	-52.4781	30.9443	-205.337	-53.8195	-0.722942	-204.791	-60.9781	-26.2742	-222.96	-65.9628	47.3517	-225.976	-67.3684	23.2992	-233.942	-67.6143	-2.55317	-202.722	-46.9798	87.6957	-205.391	-42.1042	117.263	-167.599	-39.7335	100.762	
6	0.05	-137.893	-68.5736	108.686	-118.612	-82.9078	88.8469	-104.095	-96.8984	65.7073	-93.2089	-107.822	44.1674	-151.505	-49.1078	28.14	-143.562	-49.8644	5.42856	-141.98	-53.8418	-23.4685	-180.587	-47.1146	20.7429	-176.518	-48.2751	-7.64023	-178.253	-55.563	-42.6217	-200.721	-55.4142	31.1758	-204.843	-56.9215	0.348512	-201.872	-63.4489	-32.0337	-226.104	-69.7272	45.3163	-230.239	-70.4786	16.095	-234.99	-70.0602	-6.09809	-202.087	-52.185	86.2872	-207.417	-45.4851	117.175	-171.58	-41.864	100.159	
7	0.0583333	-140.403	-71.6562	111.359	-121.63	-85.7447	89.338	-102.197	-96.8743	59.1552	-91.0957	-108.46	41.5634	-152.713	-50.8664	27.9906	-144.621	-51.5929	-0.895573	-145.015	-54.3736	-25.4978	-180.865	-50.0052	19.2343	-179.694	-51.4959	-10.3247	-176.932	-58.4634	-46.6078	-202.84	-57.7125	28.0321	-209.567	-60.1451	-1.9408	-207.094	-66.2796	-30.147	-228.086	-70.9933	41.2551	-230.758	-73.0021	17.7377	-236.464	-72.5321	-10.9317	-209.533	-55.4236	84.4437	-209.069	-49.1536	113.671	-170.602	-44.2361	97.5974	
8	0.0666667	-143.242	-76.2559	106.888	-125.294	-88.5426	84.3699	-109.535	-98.9466	57.9978	-96.3979	-108.9	34.9642	-155.466	-53.1419	29.4957	-148.689	-51.7442	-2.4833	-142.205	-54.623	-30.4374	-182.846	-51.7396	21.7326	-184.562	-52.7839	-14.858	-182.35	-58.4155	-45.1395	-207.47	-59.0627	25.3712	-211.564	-60.547	-2.39414	-206.615	-66.3156	-33.829	-230.437	-73.8683	44.4966	-233.034	-73.7885	17.8261	-239.537	-71.9058	-9.44198	-209.098	-58.1709	81.947	-211.698	-53.1582	115.934	-174.42	-50.2269	97.6413	
9	0.075	-148.188	-80.5837	107.291	-124.541	-91.4127	83.5388	-107.85	-100.149	57.8944	-101.666	-110.533	35.9122	-156.831	-54.9366	28.2106	-154.315	-52.315	1.99835	-149.158	-52.589	-28.0558	-183.71	-51.8967	19.5305	-182.915	-51.3288	-12.351	-184.285	-56.4351	-43.7591	-206.802	-58.4457	24.4199	-215.013	-58.9215	-0.808356	-211.06	-64.7615	-32.3025	-228.715	-74.5876	44.2779	-237.439	-73.2094	14.872	-240.514	-70.8605	-8.94203	-214.25	-59.9317	82.4618	-213.227	-55.1858	111.938	-175.504	-53.3232	98.1844	
10	0.0833333	-149.23	-83.6502	104.708	-130.716	-93.4382	82.6125	-113.356	-100.67	53.8754	-101.85	-108.14	31.3364	-161.972	-55.6984	27.4374	-154.369	-51.8476	2.08847	-152.606	-50.2794	-29.3814	-187.174	-50.4347	19.2311	-185.884	-48.9181	-9.93098	-190.069	-51.1951	-42.6703	-215.681	-58.3093	27.3949	-216.755	-55.4222	-0.0288981	-212.892	-58.8763	-32.9812	-232.005	-73.1863	44.314	-239.609	-68.955	16.0836	-243.118	-66.282	-7.88661	-216.564	-61.1543	83.6325	-214.577	-58.7784	111.884	-179.749	-55.6439	97.7173	
